# xmcd
#
# Track frame offsets:
#	150
#	9412
#	29283
#	43900
#	61807
#	76444
#	94389
#	110059
#	115123
#	130488
#	137217
#	157413
#	163609
#	184172
#	205063
#	222037
#	236604
#	254694
#	267139
#
# Disc length: 3747 seconds
#
# Revision: 1
# Processed by: cddbd v1.5.2PL0 Copyright (c) Steve Scherf et al.
# Submitted via: EZCDAudioConverter 2.1.7.1
#
DISCID=190ea113
DTITLE=Locomotive - We Are Everything You See
DYEAR=1969
DGENRE=
TTITLE0=Overture
TTITLE1=Mr. Armageddon
TTITLE2=Now Is The End – The End Is When
TTITLE3=Lay Me Down Gently
TTITLE4=Nobody Asked You To Come
TTITLE5=You Must Be Joking
TTITLE6=A Day In Shining Armour
TTITLE7=The Loves Of Augustus Abbey (Part 1)
TTITLE8=Rain
TTITLE9=The Loves Of Augustus Abbey (Part 2)
TTITLE10=Coming Down - Love Song For The Dead Ché
TTITLE11=The Loves Of Augustus Abbey (Part 3)
TTITLE12=Time Of Light And Darkness
TTITLE13=Mr. Armageddon [Mono Single]
TTITLE14=There's Got To Be A Way
TTITLE15=I'm Never Gonna Let You Go
TTITLE16=You Must Be Joking [Mono Single]
TTITLE17=Movin' Down The Line
TTITLE18=Roll Over Mary
EXTD=
EXTT0=
EXTT1=
EXTT2=
EXTT3=
EXTT4=
EXTT5=
EXTT6=
EXTT7=
EXTT8=
EXTT9=
EXTT10=
EXTT11=
EXTT12=
EXTT13=
EXTT14=
EXTT15=
EXTT16=
EXTT17=
EXTT18=
PLAYORDER=
